<mxfile host="app.diagrams.net" agent="Mozilla/5.0 (Windows NT 10.0; Win64; x64) AppleWebKit/537.36 (KHTML, like Gecko) Chrome/136.0.0.0 Safari/537.36" version="27.1.1">
  <diagram name="Page-1" id="oX66yyV2muiVEcddR9T0">
    <mxGraphModel dx="3044" dy="2308" grid="1" gridSize="10" guides="1" tooltips="1" connect="1" arrows="1" fold="1" page="1" pageScale="1" pageWidth="850" pageHeight="1100" math="0" shadow="0">
      <root>
        <mxCell id="0" />
        <mxCell id="1" parent="0" />
        <mxCell id="lshB3avTdnD3_KG9R20y-109" style="edgeStyle=orthogonalEdgeStyle;rounded=0;orthogonalLoop=1;jettySize=auto;html=1;exitX=1;exitY=0.5;exitDx=0;exitDy=0;entryX=0;entryY=0.5;entryDx=0;entryDy=0;endArrow=none;startFill=0;startArrow=ERzeroToMany;" edge="1" parent="1" source="lshB3avTdnD3_KG9R20y-93" target="lshB3avTdnD3_KG9R20y-107">
          <mxGeometry relative="1" as="geometry" />
        </mxCell>
        <mxCell id="lshB3avTdnD3_KG9R20y-120" style="edgeStyle=orthogonalEdgeStyle;rounded=0;orthogonalLoop=1;jettySize=auto;html=1;exitX=0.5;exitY=1;exitDx=0;exitDy=0;endArrow=none;startFill=0;startArrow=ERzeroToMany;" edge="1" parent="1" source="lshB3avTdnD3_KG9R20y-93" target="lshB3avTdnD3_KG9R20y-108">
          <mxGeometry relative="1" as="geometry" />
        </mxCell>
        <mxCell id="lshB3avTdnD3_KG9R20y-209" style="edgeStyle=orthogonalEdgeStyle;shape=connector;rounded=0;orthogonalLoop=1;jettySize=auto;html=1;exitX=0.5;exitY=0;exitDx=0;exitDy=0;entryX=0.5;entryY=1;entryDx=0;entryDy=0;strokeColor=default;align=center;verticalAlign=middle;fontFamily=Helvetica;fontSize=11;fontColor=default;labelBackgroundColor=default;startFill=0;endArrow=none;" edge="1" parent="1" source="lshB3avTdnD3_KG9R20y-93" target="lshB3avTdnD3_KG9R20y-197">
          <mxGeometry relative="1" as="geometry" />
        </mxCell>
        <mxCell id="lshB3avTdnD3_KG9R20y-210" style="edgeStyle=orthogonalEdgeStyle;shape=connector;rounded=0;orthogonalLoop=1;jettySize=auto;html=1;exitX=0.5;exitY=0;exitDx=0;exitDy=0;entryX=0.5;entryY=1;entryDx=0;entryDy=0;strokeColor=default;align=center;verticalAlign=middle;fontFamily=Helvetica;fontSize=11;fontColor=default;labelBackgroundColor=default;startFill=0;endArrow=none;" edge="1" parent="1" source="lshB3avTdnD3_KG9R20y-93" target="lshB3avTdnD3_KG9R20y-198">
          <mxGeometry relative="1" as="geometry" />
        </mxCell>
        <mxCell id="lshB3avTdnD3_KG9R20y-211" style="edgeStyle=orthogonalEdgeStyle;shape=connector;rounded=0;orthogonalLoop=1;jettySize=auto;html=1;exitX=0.5;exitY=0;exitDx=0;exitDy=0;entryX=0.5;entryY=1;entryDx=0;entryDy=0;strokeColor=default;align=center;verticalAlign=middle;fontFamily=Helvetica;fontSize=11;fontColor=default;labelBackgroundColor=default;startFill=0;endArrow=none;" edge="1" parent="1" source="lshB3avTdnD3_KG9R20y-93" target="lshB3avTdnD3_KG9R20y-100">
          <mxGeometry relative="1" as="geometry" />
        </mxCell>
        <mxCell id="lshB3avTdnD3_KG9R20y-212" style="edgeStyle=orthogonalEdgeStyle;shape=connector;rounded=0;orthogonalLoop=1;jettySize=auto;html=1;exitX=0.5;exitY=0;exitDx=0;exitDy=0;entryX=0.5;entryY=1;entryDx=0;entryDy=0;strokeColor=default;align=center;verticalAlign=middle;fontFamily=Helvetica;fontSize=11;fontColor=default;labelBackgroundColor=default;startFill=0;endArrow=none;" edge="1" parent="1" source="lshB3avTdnD3_KG9R20y-93" target="lshB3avTdnD3_KG9R20y-102">
          <mxGeometry relative="1" as="geometry" />
        </mxCell>
        <mxCell id="lshB3avTdnD3_KG9R20y-213" style="edgeStyle=orthogonalEdgeStyle;shape=connector;rounded=0;orthogonalLoop=1;jettySize=auto;html=1;exitX=0.5;exitY=0;exitDx=0;exitDy=0;entryX=0.5;entryY=1;entryDx=0;entryDy=0;strokeColor=default;align=center;verticalAlign=middle;fontFamily=Helvetica;fontSize=11;fontColor=default;labelBackgroundColor=default;startFill=0;endArrow=none;" edge="1" parent="1" source="lshB3avTdnD3_KG9R20y-93" target="lshB3avTdnD3_KG9R20y-103">
          <mxGeometry relative="1" as="geometry" />
        </mxCell>
        <mxCell id="lshB3avTdnD3_KG9R20y-93" value="University Staff&lt;br&gt;/ Club Coordinator" style="whiteSpace=wrap;html=1;align=center;" vertex="1" parent="1">
          <mxGeometry x="130" y="-50" width="100" height="40" as="geometry" />
        </mxCell>
        <mxCell id="lshB3avTdnD3_KG9R20y-185" style="edgeStyle=orthogonalEdgeStyle;shape=connector;rounded=0;orthogonalLoop=1;jettySize=auto;html=1;exitX=0.5;exitY=1;exitDx=0;exitDy=0;strokeColor=default;align=center;verticalAlign=middle;fontFamily=Helvetica;fontSize=11;fontColor=default;labelBackgroundColor=default;startFill=0;endArrow=none;startArrow=ERzeroToOne;" edge="1" parent="1" source="lshB3avTdnD3_KG9R20y-95" target="lshB3avTdnD3_KG9R20y-184">
          <mxGeometry relative="1" as="geometry" />
        </mxCell>
        <mxCell id="lshB3avTdnD3_KG9R20y-193" style="edgeStyle=orthogonalEdgeStyle;shape=connector;rounded=0;orthogonalLoop=1;jettySize=auto;html=1;exitX=1;exitY=0.5;exitDx=0;exitDy=0;entryX=0;entryY=0.5;entryDx=0;entryDy=0;strokeColor=default;align=center;verticalAlign=middle;fontFamily=Helvetica;fontSize=11;fontColor=default;labelBackgroundColor=default;startFill=0;endArrow=none;" edge="1" parent="1" source="lshB3avTdnD3_KG9R20y-95" target="lshB3avTdnD3_KG9R20y-192">
          <mxGeometry relative="1" as="geometry" />
        </mxCell>
        <mxCell id="lshB3avTdnD3_KG9R20y-194" style="edgeStyle=orthogonalEdgeStyle;shape=connector;rounded=0;orthogonalLoop=1;jettySize=auto;html=1;exitX=1;exitY=0.5;exitDx=0;exitDy=0;entryX=0;entryY=0.5;entryDx=0;entryDy=0;strokeColor=default;align=center;verticalAlign=middle;fontFamily=Helvetica;fontSize=11;fontColor=default;labelBackgroundColor=default;startFill=0;endArrow=none;" edge="1" parent="1" source="lshB3avTdnD3_KG9R20y-95" target="lshB3avTdnD3_KG9R20y-189">
          <mxGeometry relative="1" as="geometry" />
        </mxCell>
        <mxCell id="lshB3avTdnD3_KG9R20y-214" style="edgeStyle=orthogonalEdgeStyle;shape=connector;rounded=0;orthogonalLoop=1;jettySize=auto;html=1;exitX=0.5;exitY=0;exitDx=0;exitDy=0;entryX=0.5;entryY=1;entryDx=0;entryDy=0;strokeColor=default;align=center;verticalAlign=middle;fontFamily=Helvetica;fontSize=11;fontColor=default;labelBackgroundColor=default;startFill=0;endArrow=none;" edge="1" parent="1" source="lshB3avTdnD3_KG9R20y-95" target="lshB3avTdnD3_KG9R20y-115">
          <mxGeometry relative="1" as="geometry" />
        </mxCell>
        <mxCell id="lshB3avTdnD3_KG9R20y-215" style="edgeStyle=orthogonalEdgeStyle;shape=connector;rounded=0;orthogonalLoop=1;jettySize=auto;html=1;exitX=0.5;exitY=0;exitDx=0;exitDy=0;entryX=0.5;entryY=1;entryDx=0;entryDy=0;strokeColor=default;align=center;verticalAlign=middle;fontFamily=Helvetica;fontSize=11;fontColor=default;labelBackgroundColor=default;startFill=0;endArrow=none;" edge="1" parent="1" source="lshB3avTdnD3_KG9R20y-95" target="lshB3avTdnD3_KG9R20y-116">
          <mxGeometry relative="1" as="geometry" />
        </mxCell>
        <mxCell id="lshB3avTdnD3_KG9R20y-217" style="edgeStyle=orthogonalEdgeStyle;shape=connector;rounded=0;orthogonalLoop=1;jettySize=auto;html=1;exitX=1;exitY=0.5;exitDx=0;exitDy=0;entryX=0;entryY=0.5;entryDx=0;entryDy=0;strokeColor=default;align=center;verticalAlign=middle;fontFamily=Helvetica;fontSize=11;fontColor=default;labelBackgroundColor=default;startFill=0;endArrow=none;" edge="1" parent="1" source="lshB3avTdnD3_KG9R20y-95" target="lshB3avTdnD3_KG9R20y-188">
          <mxGeometry relative="1" as="geometry" />
        </mxCell>
        <mxCell id="lshB3avTdnD3_KG9R20y-220" style="edgeStyle=orthogonalEdgeStyle;shape=connector;rounded=0;orthogonalLoop=1;jettySize=auto;html=1;exitX=0.5;exitY=0;exitDx=0;exitDy=0;entryX=1;entryY=0.5;entryDx=0;entryDy=0;strokeColor=default;align=center;verticalAlign=middle;fontFamily=Helvetica;fontSize=11;fontColor=default;labelBackgroundColor=default;startFill=0;endArrow=ERzeroToMany;startArrow=ERzeroToOne;endFill=0;" edge="1" parent="1" source="lshB3avTdnD3_KG9R20y-95" target="lshB3avTdnD3_KG9R20y-218">
          <mxGeometry relative="1" as="geometry">
            <Array as="points">
              <mxPoint x="850" y="-230" />
              <mxPoint x="1720" y="-230" />
              <mxPoint x="1720" y="990" />
            </Array>
          </mxGeometry>
        </mxCell>
        <mxCell id="lshB3avTdnD3_KG9R20y-95" value="IT" style="whiteSpace=wrap;html=1;align=center;" vertex="1" parent="1">
          <mxGeometry x="800" y="-50" width="100" height="40" as="geometry" />
        </mxCell>
        <mxCell id="lshB3avTdnD3_KG9R20y-129" style="edgeStyle=orthogonalEdgeStyle;rounded=0;orthogonalLoop=1;jettySize=auto;html=1;exitX=0.5;exitY=1;exitDx=0;exitDy=0;entryX=0.5;entryY=0;entryDx=0;entryDy=0;endArrow=none;startFill=0;" edge="1" parent="1" source="lshB3avTdnD3_KG9R20y-96" target="lshB3avTdnD3_KG9R20y-122">
          <mxGeometry relative="1" as="geometry" />
        </mxCell>
        <mxCell id="lshB3avTdnD3_KG9R20y-130" style="edgeStyle=orthogonalEdgeStyle;rounded=0;orthogonalLoop=1;jettySize=auto;html=1;exitX=0.5;exitY=1;exitDx=0;exitDy=0;endArrow=none;startFill=0;" edge="1" parent="1" source="lshB3avTdnD3_KG9R20y-96" target="lshB3avTdnD3_KG9R20y-126">
          <mxGeometry relative="1" as="geometry" />
        </mxCell>
        <mxCell id="lshB3avTdnD3_KG9R20y-131" style="edgeStyle=orthogonalEdgeStyle;rounded=0;orthogonalLoop=1;jettySize=auto;html=1;exitX=0.5;exitY=1;exitDx=0;exitDy=0;entryX=0.5;entryY=0;entryDx=0;entryDy=0;endArrow=none;startFill=0;" edge="1" parent="1" source="lshB3avTdnD3_KG9R20y-96" target="lshB3avTdnD3_KG9R20y-123">
          <mxGeometry relative="1" as="geometry" />
        </mxCell>
        <mxCell id="lshB3avTdnD3_KG9R20y-137" style="edgeStyle=orthogonalEdgeStyle;rounded=0;orthogonalLoop=1;jettySize=auto;html=1;exitX=1;exitY=0.5;exitDx=0;exitDy=0;entryX=0;entryY=0.5;entryDx=0;entryDy=0;startArrow=ERzeroToOne;startFill=0;endArrow=none;" edge="1" parent="1" source="lshB3avTdnD3_KG9R20y-96" target="lshB3avTdnD3_KG9R20y-133">
          <mxGeometry relative="1" as="geometry" />
        </mxCell>
        <mxCell id="lshB3avTdnD3_KG9R20y-219" style="edgeStyle=orthogonalEdgeStyle;shape=connector;rounded=0;orthogonalLoop=1;jettySize=auto;html=1;exitX=0;exitY=0.5;exitDx=0;exitDy=0;strokeColor=default;align=center;verticalAlign=middle;fontFamily=Helvetica;fontSize=11;fontColor=default;labelBackgroundColor=default;startFill=0;endArrow=ERzeroToMany;startArrow=ERzeroToOne;endFill=0;entryX=0;entryY=0.5;entryDx=0;entryDy=0;" edge="1" parent="1" source="lshB3avTdnD3_KG9R20y-96" target="lshB3avTdnD3_KG9R20y-218">
          <mxGeometry relative="1" as="geometry">
            <mxPoint x="350" y="990" as="targetPoint" />
            <Array as="points">
              <mxPoint x="-560" y="280" />
              <mxPoint x="-560" y="990" />
            </Array>
          </mxGeometry>
        </mxCell>
        <mxCell id="lshB3avTdnD3_KG9R20y-96" value="Service User" style="whiteSpace=wrap;html=1;align=center;" vertex="1" parent="1">
          <mxGeometry x="-250" y="260" width="100" height="40" as="geometry" />
        </mxCell>
        <mxCell id="lshB3avTdnD3_KG9R20y-175" style="edgeStyle=orthogonalEdgeStyle;rounded=0;orthogonalLoop=1;jettySize=auto;html=1;exitX=1;exitY=0.5;exitDx=0;exitDy=0;entryX=0;entryY=0.5;entryDx=0;entryDy=0;endArrow=none;startFill=0;" edge="1" parent="1" source="lshB3avTdnD3_KG9R20y-97" target="lshB3avTdnD3_KG9R20y-174">
          <mxGeometry relative="1" as="geometry" />
        </mxCell>
        <mxCell id="lshB3avTdnD3_KG9R20y-176" style="edgeStyle=orthogonalEdgeStyle;shape=connector;rounded=0;orthogonalLoop=1;jettySize=auto;html=1;exitX=1;exitY=0.5;exitDx=0;exitDy=0;entryX=0;entryY=0.5;entryDx=0;entryDy=0;strokeColor=default;align=center;verticalAlign=middle;fontFamily=Helvetica;fontSize=11;fontColor=default;labelBackgroundColor=default;startFill=0;endArrow=none;" edge="1" parent="1" source="lshB3avTdnD3_KG9R20y-97" target="lshB3avTdnD3_KG9R20y-173">
          <mxGeometry relative="1" as="geometry" />
        </mxCell>
        <mxCell id="lshB3avTdnD3_KG9R20y-177" style="edgeStyle=orthogonalEdgeStyle;shape=connector;rounded=0;orthogonalLoop=1;jettySize=auto;html=1;exitX=1;exitY=0.5;exitDx=0;exitDy=0;entryX=0;entryY=0.5;entryDx=0;entryDy=0;strokeColor=default;align=center;verticalAlign=middle;fontFamily=Helvetica;fontSize=11;fontColor=default;labelBackgroundColor=default;startFill=0;endArrow=none;" edge="1" parent="1" source="lshB3avTdnD3_KG9R20y-97" target="lshB3avTdnD3_KG9R20y-172">
          <mxGeometry relative="1" as="geometry" />
        </mxCell>
        <mxCell id="lshB3avTdnD3_KG9R20y-178" style="edgeStyle=orthogonalEdgeStyle;shape=connector;rounded=0;orthogonalLoop=1;jettySize=auto;html=1;exitX=1;exitY=0.5;exitDx=0;exitDy=0;strokeColor=default;align=center;verticalAlign=middle;fontFamily=Helvetica;fontSize=11;fontColor=default;labelBackgroundColor=default;startFill=0;endArrow=none;" edge="1" parent="1" source="lshB3avTdnD3_KG9R20y-97" target="lshB3avTdnD3_KG9R20y-171">
          <mxGeometry relative="1" as="geometry" />
        </mxCell>
        <mxCell id="lshB3avTdnD3_KG9R20y-179" style="edgeStyle=orthogonalEdgeStyle;shape=connector;rounded=0;orthogonalLoop=1;jettySize=auto;html=1;exitX=1;exitY=0.5;exitDx=0;exitDy=0;entryX=0;entryY=0.5;entryDx=0;entryDy=0;strokeColor=default;align=center;verticalAlign=middle;fontFamily=Helvetica;fontSize=11;fontColor=default;labelBackgroundColor=default;startFill=0;endArrow=none;" edge="1" parent="1" source="lshB3avTdnD3_KG9R20y-97" target="lshB3avTdnD3_KG9R20y-169">
          <mxGeometry relative="1" as="geometry" />
        </mxCell>
        <mxCell id="lshB3avTdnD3_KG9R20y-180" style="edgeStyle=orthogonalEdgeStyle;shape=connector;rounded=0;orthogonalLoop=1;jettySize=auto;html=1;exitX=1;exitY=0.5;exitDx=0;exitDy=0;entryX=0;entryY=0.5;entryDx=0;entryDy=0;strokeColor=default;align=center;verticalAlign=middle;fontFamily=Helvetica;fontSize=11;fontColor=default;labelBackgroundColor=default;startFill=0;endArrow=none;" edge="1" parent="1" source="lshB3avTdnD3_KG9R20y-97" target="lshB3avTdnD3_KG9R20y-170">
          <mxGeometry relative="1" as="geometry" />
        </mxCell>
        <mxCell id="lshB3avTdnD3_KG9R20y-182" style="edgeStyle=orthogonalEdgeStyle;shape=connector;rounded=0;orthogonalLoop=1;jettySize=auto;html=1;exitX=0;exitY=0.5;exitDx=0;exitDy=0;entryX=0.5;entryY=0;entryDx=0;entryDy=0;strokeColor=default;align=center;verticalAlign=middle;fontFamily=Helvetica;fontSize=11;fontColor=default;labelBackgroundColor=default;startFill=0;endArrow=none;startArrow=ERmandOne;" edge="1" parent="1" source="lshB3avTdnD3_KG9R20y-97" target="lshB3avTdnD3_KG9R20y-181">
          <mxGeometry relative="1" as="geometry" />
        </mxCell>
        <mxCell id="lshB3avTdnD3_KG9R20y-97" value="Finance" style="whiteSpace=wrap;html=1;align=center;" vertex="1" parent="1">
          <mxGeometry x="1310" y="50" width="100" height="40" as="geometry" />
        </mxCell>
        <mxCell id="lshB3avTdnD3_KG9R20y-160" style="edgeStyle=orthogonalEdgeStyle;rounded=0;orthogonalLoop=1;jettySize=auto;html=1;exitX=0.5;exitY=1;exitDx=0;exitDy=0;entryX=0.5;entryY=0;entryDx=0;entryDy=0;endArrow=none;startFill=0;" edge="1" parent="1" source="lshB3avTdnD3_KG9R20y-98" target="lshB3avTdnD3_KG9R20y-154">
          <mxGeometry relative="1" as="geometry" />
        </mxCell>
        <mxCell id="lshB3avTdnD3_KG9R20y-161" style="edgeStyle=orthogonalEdgeStyle;rounded=0;orthogonalLoop=1;jettySize=auto;html=1;exitX=0.5;exitY=1;exitDx=0;exitDy=0;endArrow=none;startFill=0;" edge="1" parent="1" source="lshB3avTdnD3_KG9R20y-98" target="lshB3avTdnD3_KG9R20y-153">
          <mxGeometry relative="1" as="geometry" />
        </mxCell>
        <mxCell id="lshB3avTdnD3_KG9R20y-162" style="edgeStyle=orthogonalEdgeStyle;rounded=0;orthogonalLoop=1;jettySize=auto;html=1;exitX=0.5;exitY=1;exitDx=0;exitDy=0;entryX=0.5;entryY=0;entryDx=0;entryDy=0;endArrow=none;startFill=0;" edge="1" parent="1" source="lshB3avTdnD3_KG9R20y-98" target="lshB3avTdnD3_KG9R20y-155">
          <mxGeometry relative="1" as="geometry" />
        </mxCell>
        <mxCell id="lshB3avTdnD3_KG9R20y-163" style="edgeStyle=orthogonalEdgeStyle;rounded=0;orthogonalLoop=1;jettySize=auto;html=1;exitX=0.5;exitY=1;exitDx=0;exitDy=0;entryX=0.5;entryY=0;entryDx=0;entryDy=0;endArrow=none;startFill=0;" edge="1" parent="1" source="lshB3avTdnD3_KG9R20y-98" target="lshB3avTdnD3_KG9R20y-156">
          <mxGeometry relative="1" as="geometry" />
        </mxCell>
        <mxCell id="lshB3avTdnD3_KG9R20y-164" style="edgeStyle=orthogonalEdgeStyle;rounded=0;orthogonalLoop=1;jettySize=auto;html=1;exitX=0.5;exitY=1;exitDx=0;exitDy=0;endArrow=none;startFill=0;" edge="1" parent="1" source="lshB3avTdnD3_KG9R20y-98" target="lshB3avTdnD3_KG9R20y-157">
          <mxGeometry relative="1" as="geometry" />
        </mxCell>
        <mxCell id="lshB3avTdnD3_KG9R20y-165" style="edgeStyle=orthogonalEdgeStyle;rounded=0;orthogonalLoop=1;jettySize=auto;html=1;exitX=0.5;exitY=1;exitDx=0;exitDy=0;entryX=0.5;entryY=0;entryDx=0;entryDy=0;endArrow=none;startFill=0;" edge="1" parent="1" source="lshB3avTdnD3_KG9R20y-98" target="lshB3avTdnD3_KG9R20y-158">
          <mxGeometry relative="1" as="geometry" />
        </mxCell>
        <mxCell id="lshB3avTdnD3_KG9R20y-98" value="Item" style="whiteSpace=wrap;html=1;align=center;" vertex="1" parent="1">
          <mxGeometry x="1000" y="260" width="100" height="40" as="geometry" />
        </mxCell>
        <mxCell id="lshB3avTdnD3_KG9R20y-99" value="Location" style="whiteSpace=wrap;html=1;align=center;" vertex="1" parent="1">
          <mxGeometry x="410" y="630" width="100" height="40" as="geometry" />
        </mxCell>
        <mxCell id="lshB3avTdnD3_KG9R20y-100" value="ID" style="ellipse;whiteSpace=wrap;html=1;align=center;fontStyle=4;" vertex="1" parent="1">
          <mxGeometry x="-30" y="-200" width="100" height="40" as="geometry" />
        </mxCell>
        <mxCell id="lshB3avTdnD3_KG9R20y-102" value="Username" style="ellipse;whiteSpace=wrap;html=1;align=center;" vertex="1" parent="1">
          <mxGeometry x="-170" y="-200" width="100" height="40" as="geometry" />
        </mxCell>
        <mxCell id="lshB3avTdnD3_KG9R20y-103" value="Password" style="ellipse;whiteSpace=wrap;html=1;align=center;" vertex="1" parent="1">
          <mxGeometry x="-290" y="-200" width="100" height="40" as="geometry" />
        </mxCell>
        <mxCell id="lshB3avTdnD3_KG9R20y-110" style="edgeStyle=orthogonalEdgeStyle;rounded=0;orthogonalLoop=1;jettySize=auto;html=1;exitX=1;exitY=0.5;exitDx=0;exitDy=0;entryX=0;entryY=0.5;entryDx=0;entryDy=0;endArrow=ERzeroToOne;endFill=0;" edge="1" parent="1" source="lshB3avTdnD3_KG9R20y-107" target="lshB3avTdnD3_KG9R20y-95">
          <mxGeometry relative="1" as="geometry" />
        </mxCell>
        <mxCell id="lshB3avTdnD3_KG9R20y-113" style="edgeStyle=orthogonalEdgeStyle;rounded=0;orthogonalLoop=1;jettySize=auto;html=1;exitX=0.5;exitY=0;exitDx=0;exitDy=0;entryX=0.5;entryY=1;entryDx=0;entryDy=0;endArrow=none;startFill=0;" edge="1" parent="1" source="lshB3avTdnD3_KG9R20y-107" target="lshB3avTdnD3_KG9R20y-112">
          <mxGeometry relative="1" as="geometry" />
        </mxCell>
        <mxCell id="lshB3avTdnD3_KG9R20y-107" value="Send Notification" style="shape=rhombus;perimeter=rhombusPerimeter;whiteSpace=wrap;html=1;align=center;" vertex="1" parent="1">
          <mxGeometry x="400" y="-20" width="120" height="60" as="geometry" />
        </mxCell>
        <mxCell id="lshB3avTdnD3_KG9R20y-121" style="edgeStyle=orthogonalEdgeStyle;rounded=0;orthogonalLoop=1;jettySize=auto;html=1;exitX=0.5;exitY=1;exitDx=0;exitDy=0;endArrow=ERzeroToOne;endFill=0;" edge="1" parent="1" source="lshB3avTdnD3_KG9R20y-108" target="lshB3avTdnD3_KG9R20y-96">
          <mxGeometry relative="1" as="geometry" />
        </mxCell>
        <mxCell id="lshB3avTdnD3_KG9R20y-128" style="edgeStyle=orthogonalEdgeStyle;rounded=0;orthogonalLoop=1;jettySize=auto;html=1;exitX=0;exitY=0.5;exitDx=0;exitDy=0;entryX=1;entryY=0.5;entryDx=0;entryDy=0;endArrow=none;startFill=0;" edge="1" parent="1" source="lshB3avTdnD3_KG9R20y-108" target="lshB3avTdnD3_KG9R20y-127">
          <mxGeometry relative="1" as="geometry" />
        </mxCell>
        <mxCell id="lshB3avTdnD3_KG9R20y-108" value="Send Notification" style="shape=rhombus;perimeter=rhombusPerimeter;whiteSpace=wrap;html=1;align=center;" vertex="1" parent="1">
          <mxGeometry x="-260" y="50" width="120" height="60" as="geometry" />
        </mxCell>
        <mxCell id="lshB3avTdnD3_KG9R20y-112" value="Item_type" style="ellipse;shape=doubleEllipse;margin=3;whiteSpace=wrap;html=1;align=center;" vertex="1" parent="1">
          <mxGeometry x="410" y="-160" width="100" height="40" as="geometry" />
        </mxCell>
        <mxCell id="lshB3avTdnD3_KG9R20y-115" value="Username" style="ellipse;whiteSpace=wrap;html=1;align=center;fontStyle=4;" vertex="1" parent="1">
          <mxGeometry x="820" y="-190" width="100" height="40" as="geometry" />
        </mxCell>
        <mxCell id="lshB3avTdnD3_KG9R20y-116" value="Id" style="ellipse;whiteSpace=wrap;html=1;align=center;fontStyle=4;" vertex="1" parent="1">
          <mxGeometry x="710" y="-190" width="100" height="40" as="geometry" />
        </mxCell>
        <mxCell id="lshB3avTdnD3_KG9R20y-122" value="Username" style="ellipse;whiteSpace=wrap;html=1;align=center;fontStyle=4;" vertex="1" parent="1">
          <mxGeometry x="-500" y="400" width="100" height="40" as="geometry" />
        </mxCell>
        <mxCell id="lshB3avTdnD3_KG9R20y-123" value="ID" style="ellipse;whiteSpace=wrap;html=1;align=center;fontStyle=4;" vertex="1" parent="1">
          <mxGeometry x="10" y="400" width="100" height="40" as="geometry" />
        </mxCell>
        <mxCell id="lshB3avTdnD3_KG9R20y-126" value="Password" style="ellipse;whiteSpace=wrap;html=1;align=center;" vertex="1" parent="1">
          <mxGeometry x="-250" y="400" width="100" height="40" as="geometry" />
        </mxCell>
        <mxCell id="lshB3avTdnD3_KG9R20y-127" value="Item_type" style="ellipse;shape=doubleEllipse;margin=3;whiteSpace=wrap;html=1;align=center;" vertex="1" parent="1">
          <mxGeometry x="-480" y="60" width="100" height="40" as="geometry" />
        </mxCell>
        <mxCell id="lshB3avTdnD3_KG9R20y-132" value="Password" style="ellipse;whiteSpace=wrap;html=1;align=center;" vertex="1" parent="1">
          <mxGeometry x="930" y="-190" width="100" height="40" as="geometry" />
        </mxCell>
        <mxCell id="lshB3avTdnD3_KG9R20y-138" style="edgeStyle=orthogonalEdgeStyle;rounded=0;orthogonalLoop=1;jettySize=auto;html=1;exitX=1;exitY=0.5;exitDx=0;exitDy=0;entryX=0;entryY=0.5;entryDx=0;entryDy=0;endArrow=ERzeroToMany;endFill=0;" edge="1" parent="1" source="lshB3avTdnD3_KG9R20y-133" target="lshB3avTdnD3_KG9R20y-134">
          <mxGeometry relative="1" as="geometry" />
        </mxCell>
        <mxCell id="lshB3avTdnD3_KG9R20y-133" value="Adds" style="shape=rhombus;perimeter=rhombusPerimeter;whiteSpace=wrap;html=1;align=center;" vertex="1" parent="1">
          <mxGeometry x="90" y="250" width="120" height="60" as="geometry" />
        </mxCell>
        <mxCell id="lshB3avTdnD3_KG9R20y-139" style="edgeStyle=orthogonalEdgeStyle;rounded=0;orthogonalLoop=1;jettySize=auto;html=1;exitX=0.5;exitY=1;exitDx=0;exitDy=0;entryX=0.5;entryY=0;entryDx=0;entryDy=0;startArrow=ERzeroToOne;startFill=0;endArrow=none;" edge="1" parent="1" source="lshB3avTdnD3_KG9R20y-134" target="lshB3avTdnD3_KG9R20y-135">
          <mxGeometry relative="1" as="geometry" />
        </mxCell>
        <mxCell id="lshB3avTdnD3_KG9R20y-140" style="edgeStyle=orthogonalEdgeStyle;rounded=0;orthogonalLoop=1;jettySize=auto;html=1;exitX=1;exitY=0.5;exitDx=0;exitDy=0;endArrow=none;startFill=0;" edge="1" parent="1" source="lshB3avTdnD3_KG9R20y-134" target="lshB3avTdnD3_KG9R20y-136">
          <mxGeometry relative="1" as="geometry" />
        </mxCell>
        <mxCell id="lshB3avTdnD3_KG9R20y-134" value="Added_Item" style="shape=associativeEntity;whiteSpace=wrap;html=1;align=center;" vertex="1" parent="1">
          <mxGeometry x="390" y="250" width="140" height="60" as="geometry" />
        </mxCell>
        <mxCell id="lshB3avTdnD3_KG9R20y-141" style="edgeStyle=orthogonalEdgeStyle;rounded=0;orthogonalLoop=1;jettySize=auto;html=1;exitX=0.5;exitY=1;exitDx=0;exitDy=0;entryX=0.5;entryY=0;entryDx=0;entryDy=0;endArrow=ERmandOne;endFill=0;" edge="1" parent="1" source="lshB3avTdnD3_KG9R20y-135" target="lshB3avTdnD3_KG9R20y-99">
          <mxGeometry relative="1" as="geometry" />
        </mxCell>
        <mxCell id="lshB3avTdnD3_KG9R20y-135" value="Adds_to" style="shape=rhombus;perimeter=rhombusPerimeter;whiteSpace=wrap;html=1;align=center;" vertex="1" parent="1">
          <mxGeometry x="400" y="420" width="120" height="60" as="geometry" />
        </mxCell>
        <mxCell id="lshB3avTdnD3_KG9R20y-152" style="edgeStyle=orthogonalEdgeStyle;rounded=0;orthogonalLoop=1;jettySize=auto;html=1;exitX=1;exitY=0.5;exitDx=0;exitDy=0;entryX=0;entryY=0.5;entryDx=0;entryDy=0;endArrow=ERzeroToMany;endFill=0;" edge="1" parent="1" source="lshB3avTdnD3_KG9R20y-136" target="lshB3avTdnD3_KG9R20y-98">
          <mxGeometry relative="1" as="geometry" />
        </mxCell>
        <mxCell id="lshB3avTdnD3_KG9R20y-136" value="IsAdded" style="shape=rhombus;perimeter=rhombusPerimeter;whiteSpace=wrap;html=1;align=center;" vertex="1" parent="1">
          <mxGeometry x="660" y="250" width="120" height="60" as="geometry" />
        </mxCell>
        <mxCell id="lshB3avTdnD3_KG9R20y-147" style="edgeStyle=orthogonalEdgeStyle;rounded=0;orthogonalLoop=1;jettySize=auto;html=1;exitX=0.5;exitY=0;exitDx=0;exitDy=0;entryX=0.5;entryY=1;entryDx=0;entryDy=0;endArrow=none;startFill=0;" edge="1" parent="1" source="lshB3avTdnD3_KG9R20y-142" target="lshB3avTdnD3_KG9R20y-99">
          <mxGeometry relative="1" as="geometry" />
        </mxCell>
        <mxCell id="lshB3avTdnD3_KG9R20y-142" value="LocationId" style="ellipse;whiteSpace=wrap;html=1;align=center;fontStyle=4;" vertex="1" parent="1">
          <mxGeometry x="100" y="790" width="100" height="40" as="geometry" />
        </mxCell>
        <mxCell id="lshB3avTdnD3_KG9R20y-148" style="edgeStyle=orthogonalEdgeStyle;rounded=0;orthogonalLoop=1;jettySize=auto;html=1;exitX=0.5;exitY=0;exitDx=0;exitDy=0;entryX=0.5;entryY=1;entryDx=0;entryDy=0;endArrow=none;startFill=0;" edge="1" parent="1" source="lshB3avTdnD3_KG9R20y-143" target="lshB3avTdnD3_KG9R20y-99">
          <mxGeometry relative="1" as="geometry" />
        </mxCell>
        <mxCell id="lshB3avTdnD3_KG9R20y-143" value="BuildingName" style="ellipse;whiteSpace=wrap;html=1;align=center;" vertex="1" parent="1">
          <mxGeometry x="290" y="790" width="100" height="40" as="geometry" />
        </mxCell>
        <mxCell id="lshB3avTdnD3_KG9R20y-149" style="edgeStyle=orthogonalEdgeStyle;rounded=0;orthogonalLoop=1;jettySize=auto;html=1;exitX=0.5;exitY=0;exitDx=0;exitDy=0;endArrow=none;startFill=0;" edge="1" parent="1" source="lshB3avTdnD3_KG9R20y-144">
          <mxGeometry relative="1" as="geometry">
            <mxPoint x="460" y="670" as="targetPoint" />
          </mxGeometry>
        </mxCell>
        <mxCell id="lshB3avTdnD3_KG9R20y-144" value="LocationType" style="ellipse;whiteSpace=wrap;html=1;align=center;" vertex="1" parent="1">
          <mxGeometry x="440" y="790" width="100" height="40" as="geometry" />
        </mxCell>
        <mxCell id="lshB3avTdnD3_KG9R20y-150" style="edgeStyle=orthogonalEdgeStyle;rounded=0;orthogonalLoop=1;jettySize=auto;html=1;exitX=0.5;exitY=0;exitDx=0;exitDy=0;endArrow=none;startFill=0;" edge="1" parent="1" source="lshB3avTdnD3_KG9R20y-145">
          <mxGeometry relative="1" as="geometry">
            <mxPoint x="460" y="670" as="targetPoint" />
          </mxGeometry>
        </mxCell>
        <mxCell id="lshB3avTdnD3_KG9R20y-145" value="LocationName" style="ellipse;whiteSpace=wrap;html=1;align=center;" vertex="1" parent="1">
          <mxGeometry x="590" y="790" width="100" height="40" as="geometry" />
        </mxCell>
        <mxCell id="lshB3avTdnD3_KG9R20y-151" style="edgeStyle=orthogonalEdgeStyle;rounded=0;orthogonalLoop=1;jettySize=auto;html=1;exitX=0.5;exitY=0;exitDx=0;exitDy=0;entryX=0.5;entryY=1;entryDx=0;entryDy=0;endArrow=none;startFill=0;" edge="1" parent="1" source="lshB3avTdnD3_KG9R20y-146" target="lshB3avTdnD3_KG9R20y-99">
          <mxGeometry relative="1" as="geometry" />
        </mxCell>
        <mxCell id="lshB3avTdnD3_KG9R20y-146" value="Description" style="ellipse;whiteSpace=wrap;html=1;align=center;" vertex="1" parent="1">
          <mxGeometry x="730" y="790" width="100" height="40" as="geometry" />
        </mxCell>
        <mxCell id="lshB3avTdnD3_KG9R20y-153" value="LocationId" style="ellipse;whiteSpace=wrap;html=1;align=center;fontStyle=4;" vertex="1" parent="1">
          <mxGeometry x="820" y="370" width="100" height="40" as="geometry" />
        </mxCell>
        <mxCell id="lshB3avTdnD3_KG9R20y-154" value="ItemId" style="ellipse;whiteSpace=wrap;html=1;align=center;fontStyle=4;" vertex="1" parent="1">
          <mxGeometry x="690" y="370" width="100" height="40" as="geometry" />
        </mxCell>
        <mxCell id="lshB3avTdnD3_KG9R20y-155" value="ItemName" style="ellipse;whiteSpace=wrap;html=1;align=center;" vertex="1" parent="1">
          <mxGeometry x="950" y="370" width="100" height="40" as="geometry" />
        </mxCell>
        <mxCell id="lshB3avTdnD3_KG9R20y-156" value="Quantity" style="ellipse;whiteSpace=wrap;html=1;align=center;" vertex="1" parent="1">
          <mxGeometry x="1080" y="370" width="100" height="40" as="geometry" />
        </mxCell>
        <mxCell id="lshB3avTdnD3_KG9R20y-157" value="Condition" style="ellipse;whiteSpace=wrap;html=1;align=center;" vertex="1" parent="1">
          <mxGeometry x="1200" y="370" width="100" height="40" as="geometry" />
        </mxCell>
        <mxCell id="lshB3avTdnD3_KG9R20y-158" value="ItemType" style="ellipse;whiteSpace=wrap;html=1;align=center;" vertex="1" parent="1">
          <mxGeometry x="1320" y="370" width="100" height="40" as="geometry" />
        </mxCell>
        <mxCell id="lshB3avTdnD3_KG9R20y-167" style="edgeStyle=orthogonalEdgeStyle;rounded=0;orthogonalLoop=1;jettySize=auto;html=1;exitX=0.5;exitY=0;exitDx=0;exitDy=0;entryX=0.5;entryY=1;entryDx=0;entryDy=0;endArrow=none;startFill=0;" edge="1" parent="1" source="lshB3avTdnD3_KG9R20y-159" target="lshB3avTdnD3_KG9R20y-98">
          <mxGeometry relative="1" as="geometry" />
        </mxCell>
        <mxCell id="lshB3avTdnD3_KG9R20y-159" value="ImageURL" style="ellipse;whiteSpace=wrap;html=1;align=center;" vertex="1" parent="1">
          <mxGeometry x="1440" y="370" width="100" height="40" as="geometry" />
        </mxCell>
        <mxCell id="lshB3avTdnD3_KG9R20y-169" value="Id" style="ellipse;whiteSpace=wrap;html=1;align=center;fontStyle=4;" vertex="1" parent="1">
          <mxGeometry x="1510" y="-80" width="100" height="40" as="geometry" />
        </mxCell>
        <mxCell id="lshB3avTdnD3_KG9R20y-170" value="LocationId" style="ellipse;whiteSpace=wrap;html=1;align=center;fontStyle=4;" vertex="1" parent="1">
          <mxGeometry x="1510" y="-30" width="100" height="40" as="geometry" />
        </mxCell>
        <mxCell id="lshB3avTdnD3_KG9R20y-171" value="FullName" style="ellipse;whiteSpace=wrap;html=1;align=center;" vertex="1" parent="1">
          <mxGeometry x="1510" y="20" width="100" height="40" as="geometry" />
        </mxCell>
        <mxCell id="lshB3avTdnD3_KG9R20y-172" value="Username" style="ellipse;whiteSpace=wrap;html=1;align=center;" vertex="1" parent="1">
          <mxGeometry x="1510" y="70" width="100" height="40" as="geometry" />
        </mxCell>
        <mxCell id="lshB3avTdnD3_KG9R20y-173" value="Password" style="ellipse;whiteSpace=wrap;html=1;align=center;" vertex="1" parent="1">
          <mxGeometry x="1510" y="120" width="100" height="40" as="geometry" />
        </mxCell>
        <mxCell id="lshB3avTdnD3_KG9R20y-174" value="Role" style="ellipse;whiteSpace=wrap;html=1;align=center;" vertex="1" parent="1">
          <mxGeometry x="1510" y="170" width="100" height="40" as="geometry" />
        </mxCell>
        <mxCell id="lshB3avTdnD3_KG9R20y-183" style="edgeStyle=orthogonalEdgeStyle;shape=connector;rounded=0;orthogonalLoop=1;jettySize=auto;html=1;exitX=0.5;exitY=1;exitDx=0;exitDy=0;strokeColor=default;align=center;verticalAlign=middle;fontFamily=Helvetica;fontSize=11;fontColor=default;labelBackgroundColor=default;startFill=0;endArrow=ERzeroToMany;endFill=0;" edge="1" parent="1" source="lshB3avTdnD3_KG9R20y-181" target="lshB3avTdnD3_KG9R20y-98">
          <mxGeometry relative="1" as="geometry" />
        </mxCell>
        <mxCell id="lshB3avTdnD3_KG9R20y-181" value="Adds_to" style="shape=rhombus;perimeter=rhombusPerimeter;whiteSpace=wrap;html=1;align=center;" vertex="1" parent="1">
          <mxGeometry x="990" y="90" width="120" height="60" as="geometry" />
        </mxCell>
        <mxCell id="lshB3avTdnD3_KG9R20y-186" style="edgeStyle=orthogonalEdgeStyle;shape=connector;rounded=0;orthogonalLoop=1;jettySize=auto;html=1;exitX=0.5;exitY=1;exitDx=0;exitDy=0;entryX=0.5;entryY=0;entryDx=0;entryDy=0;strokeColor=default;align=center;verticalAlign=middle;fontFamily=Helvetica;fontSize=11;fontColor=default;labelBackgroundColor=default;startFill=0;endArrow=ERzeroToMany;endFill=0;" edge="1" parent="1" source="lshB3avTdnD3_KG9R20y-184" target="lshB3avTdnD3_KG9R20y-134">
          <mxGeometry relative="1" as="geometry" />
        </mxCell>
        <mxCell id="lshB3avTdnD3_KG9R20y-184" value="Adds_to" style="shape=rhombus;perimeter=rhombusPerimeter;whiteSpace=wrap;html=1;align=center;" vertex="1" parent="1">
          <mxGeometry x="630" y="120" width="120" height="60" as="geometry" />
        </mxCell>
        <mxCell id="lshB3avTdnD3_KG9R20y-188" value="LocationId" style="ellipse;whiteSpace=wrap;html=1;align=center;fontStyle=4;" vertex="1" parent="1">
          <mxGeometry x="1130" y="-170" width="100" height="40" as="geometry" />
        </mxCell>
        <mxCell id="lshB3avTdnD3_KG9R20y-189" value="FullName" style="ellipse;whiteSpace=wrap;html=1;align=center;" vertex="1" parent="1">
          <mxGeometry x="1130" y="-110" width="100" height="40" as="geometry" />
        </mxCell>
        <mxCell id="lshB3avTdnD3_KG9R20y-192" value="Role" style="ellipse;whiteSpace=wrap;html=1;align=center;" vertex="1" parent="1">
          <mxGeometry x="1130" y="-50" width="100" height="40" as="geometry" />
        </mxCell>
        <mxCell id="lshB3avTdnD3_KG9R20y-196" value="LocationId" style="ellipse;whiteSpace=wrap;html=1;align=center;fontStyle=4;" vertex="1" parent="1">
          <mxGeometry x="340" y="-200" width="100" height="40" as="geometry" />
        </mxCell>
        <mxCell id="lshB3avTdnD3_KG9R20y-197" value="FullName" style="ellipse;whiteSpace=wrap;html=1;align=center;" vertex="1" parent="1">
          <mxGeometry x="220" y="-200" width="100" height="40" as="geometry" />
        </mxCell>
        <mxCell id="lshB3avTdnD3_KG9R20y-198" value="Role" style="ellipse;whiteSpace=wrap;html=1;align=center;" vertex="1" parent="1">
          <mxGeometry x="90" y="-200" width="100" height="40" as="geometry" />
        </mxCell>
        <mxCell id="lshB3avTdnD3_KG9R20y-207" style="edgeStyle=orthogonalEdgeStyle;shape=connector;rounded=0;orthogonalLoop=1;jettySize=auto;html=1;exitX=0.5;exitY=0;exitDx=0;exitDy=0;strokeColor=default;align=center;verticalAlign=middle;fontFamily=Helvetica;fontSize=11;fontColor=default;labelBackgroundColor=default;startFill=0;endArrow=none;" edge="1" parent="1" source="lshB3avTdnD3_KG9R20y-202">
          <mxGeometry relative="1" as="geometry">
            <mxPoint x="-200" y="300" as="targetPoint" />
          </mxGeometry>
        </mxCell>
        <mxCell id="lshB3avTdnD3_KG9R20y-202" value="LocationId" style="ellipse;whiteSpace=wrap;html=1;align=center;fontStyle=4;" vertex="1" parent="1">
          <mxGeometry x="-370" y="400" width="100" height="40" as="geometry" />
        </mxCell>
        <mxCell id="lshB3avTdnD3_KG9R20y-206" style="edgeStyle=orthogonalEdgeStyle;shape=connector;rounded=0;orthogonalLoop=1;jettySize=auto;html=1;exitX=0.5;exitY=0;exitDx=0;exitDy=0;strokeColor=default;align=center;verticalAlign=middle;fontFamily=Helvetica;fontSize=11;fontColor=default;labelBackgroundColor=default;startFill=0;endArrow=none;" edge="1" parent="1" source="lshB3avTdnD3_KG9R20y-203">
          <mxGeometry relative="1" as="geometry">
            <mxPoint x="-200" y="300" as="targetPoint" />
          </mxGeometry>
        </mxCell>
        <mxCell id="lshB3avTdnD3_KG9R20y-203" value="FullName" style="ellipse;whiteSpace=wrap;html=1;align=center;" vertex="1" parent="1">
          <mxGeometry x="-120" y="400" width="100" height="40" as="geometry" />
        </mxCell>
        <mxCell id="lshB3avTdnD3_KG9R20y-205" style="edgeStyle=orthogonalEdgeStyle;shape=connector;rounded=0;orthogonalLoop=1;jettySize=auto;html=1;exitX=0.5;exitY=0;exitDx=0;exitDy=0;entryX=0.5;entryY=1;entryDx=0;entryDy=0;strokeColor=default;align=center;verticalAlign=middle;fontFamily=Helvetica;fontSize=11;fontColor=default;labelBackgroundColor=default;startFill=0;endArrow=none;" edge="1" parent="1" source="lshB3avTdnD3_KG9R20y-204" target="lshB3avTdnD3_KG9R20y-96">
          <mxGeometry relative="1" as="geometry" />
        </mxCell>
        <mxCell id="lshB3avTdnD3_KG9R20y-204" value="Role" style="ellipse;whiteSpace=wrap;html=1;align=center;" vertex="1" parent="1">
          <mxGeometry x="140" y="400" width="100" height="40" as="geometry" />
        </mxCell>
        <mxCell id="lshB3avTdnD3_KG9R20y-208" style="edgeStyle=orthogonalEdgeStyle;shape=connector;rounded=0;orthogonalLoop=1;jettySize=auto;html=1;exitX=0.5;exitY=0;exitDx=0;exitDy=0;entryX=0.402;entryY=1.047;entryDx=0;entryDy=0;entryPerimeter=0;strokeColor=default;align=center;verticalAlign=middle;fontFamily=Helvetica;fontSize=11;fontColor=default;labelBackgroundColor=default;startFill=0;endArrow=none;" edge="1" parent="1" source="lshB3avTdnD3_KG9R20y-93" target="lshB3avTdnD3_KG9R20y-196">
          <mxGeometry relative="1" as="geometry" />
        </mxCell>
        <mxCell id="lshB3avTdnD3_KG9R20y-216" style="edgeStyle=orthogonalEdgeStyle;shape=connector;rounded=0;orthogonalLoop=1;jettySize=auto;html=1;exitX=0.5;exitY=0;exitDx=0;exitDy=0;entryX=0.408;entryY=0.915;entryDx=0;entryDy=0;entryPerimeter=0;strokeColor=default;align=center;verticalAlign=middle;fontFamily=Helvetica;fontSize=11;fontColor=default;labelBackgroundColor=default;startFill=0;endArrow=none;" edge="1" parent="1" source="lshB3avTdnD3_KG9R20y-95" target="lshB3avTdnD3_KG9R20y-132">
          <mxGeometry relative="1" as="geometry" />
        </mxCell>
        <mxCell id="lshB3avTdnD3_KG9R20y-221" style="edgeStyle=orthogonalEdgeStyle;shape=connector;rounded=0;orthogonalLoop=1;jettySize=auto;html=1;exitX=0.5;exitY=0;exitDx=0;exitDy=0;strokeColor=default;align=center;verticalAlign=middle;fontFamily=Helvetica;fontSize=11;fontColor=default;labelBackgroundColor=default;startFill=0;endArrow=none;entryX=0.5;entryY=1;entryDx=0;entryDy=0;startArrow=ERzeroToOne;" edge="1" parent="1" source="lshB3avTdnD3_KG9R20y-218" target="lshB3avTdnD3_KG9R20y-222">
          <mxGeometry relative="1" as="geometry">
            <mxPoint x="1009.9999999999995" y="820" as="targetPoint" />
          </mxGeometry>
        </mxCell>
        <mxCell id="lshB3avTdnD3_KG9R20y-218" value="Quality Check" style="shape=associativeEntity;whiteSpace=wrap;html=1;align=center;" vertex="1" parent="1">
          <mxGeometry x="390" y="960" width="140" height="60" as="geometry" />
        </mxCell>
        <mxCell id="lshB3avTdnD3_KG9R20y-223" style="edgeStyle=orthogonalEdgeStyle;shape=connector;rounded=0;orthogonalLoop=1;jettySize=auto;html=1;exitX=0.5;exitY=0;exitDx=0;exitDy=0;strokeColor=default;align=center;verticalAlign=middle;fontFamily=Helvetica;fontSize=11;fontColor=default;labelBackgroundColor=default;startFill=0;endArrow=ERmandOne;endFill=0;" edge="1" parent="1" source="lshB3avTdnD3_KG9R20y-222" target="lshB3avTdnD3_KG9R20y-98">
          <mxGeometry relative="1" as="geometry">
            <Array as="points">
              <mxPoint x="1050" y="760" />
            </Array>
          </mxGeometry>
        </mxCell>
        <mxCell id="lshB3avTdnD3_KG9R20y-222" value="EditQuality" style="shape=rhombus;perimeter=rhombusPerimeter;whiteSpace=wrap;html=1;align=center;" vertex="1" parent="1">
          <mxGeometry x="990" y="760" width="120" height="60" as="geometry" />
        </mxCell>
      </root>
    </mxGraphModel>
  </diagram>
</mxfile>
